# xmcd
# 
# Track frame offsets:
#     150
#     14252
#     33477
#     49314
#     67639
#     85510
#     97126
#     116456
#     130922
#     143030
#     163523
# 
# Disc length: 2352
# 
# Revision: 0
# Processed by: cddbd v1.5.2PL0 Copyright (c) Steve Scherf et al.
# Submitted via: fre:ac v1.0.17
# 
DISCID=87092e0b
DTITLE=Willie Nile - The Innocent Ones
DYEAR=2010
DGENRE=Blues
TTITLE0=Singin' Bell
TTITLE1=One Guitar
TTITLE2=The Innocent Ones
TTITLE3=Hear You Breathe
TTITLE4=Song For You
TTITLE5=My Little Girl
TTITLE6=Topless Amateur
TTITLE7=Rich and Broken
TTITLE8=Can't Stay Home
TTITLE9=Sideways Beautiful
TTITLE10=Far Green Hills
EXTD=
EXTT0=
EXTT1=
EXTT2=
EXTT3=
EXTT4=
EXTT5=
EXTT6=
EXTT7=
EXTT8=
EXTT9=
EXTT10=
PLAYORDER=
